<svg width="21" height="24" viewBox="0 0 21 24" fill="none" xmlns="http://www.w3.org/2000/svg">
<path d="M20.2814 16.3789V-0.0273438C20.2814 -0.676758 19.8071 -1.19922 19.2174 -1.19922H4.6752C2.32539 -1.19922 0.418945 0.900391 0.418945 3.48828V19.1133C0.418945 21.7012 2.32539 23.8008 4.6752 23.8008H19.2174C19.8071 23.8008 20.2814 23.2783 20.2814 22.6289V21.8477C20.2814 21.4814 20.1263 21.1494 19.8869 20.9346C19.7006 20.1826 19.7006 18.0391 19.8869 17.2871C20.1263 17.0771 20.2814 16.7451 20.2814 16.3789ZM6.09395 5.34375C6.09395 5.18262 6.21365 5.05078 6.35996 5.05078H15.7592C15.9055 5.05078 16.0252 5.18262 16.0252 5.34375V6.32031C16.0252 6.48145 15.9055 6.61328 15.7592 6.61328H6.35996C6.21365 6.61328 6.09395 6.48145 6.09395 6.32031V5.34375ZM6.09395 8.46875C6.09395 8.30762 6.21365 8.17578 6.35996 8.17578H15.7592C15.9055 8.17578 16.0252 8.30762 16.0252 8.46875V9.44531C16.0252 9.60645 15.9055 9.73828 15.7592 9.73828H6.35996C6.21365 9.73828 6.09395 9.60645 6.09395 9.44531V8.46875ZM17.3287 20.6758H4.6752C3.89045 20.6758 3.25645 19.9775 3.25645 19.1133C3.25645 18.2539 3.89488 17.5508 4.6752 17.5508H17.3287C17.2444 18.3857 17.2444 19.8408 17.3287 20.6758Z" fill="#183B06"/>
</svg>
