<svg width="18" height="24" viewBox="0 0 18 24" fill="none" xmlns="http://www.w3.org/2000/svg">
<path d="M17.6241 5.91692V21.5259C17.6241 22.7014 16.6712 23.6544 15.4956 23.6544H2.72468C1.54913 23.6544 0.596191 22.7014 0.596191 21.5259V5.91692C0.596191 4.74137 1.54913 3.78843 2.72468 3.78843H6.27217C6.27217 2.22354 7.54527 0.950439 9.11016 0.950439C10.675 0.950439 11.9481 2.22354 11.9481 3.78843H15.4956C16.6712 3.78843 17.6241 4.74137 17.6241 5.91692ZM9.11016 2.72418C8.52238 2.72418 8.04591 3.20065 8.04591 3.78843C8.04591 4.3762 8.52238 4.85267 9.11016 4.85267C9.69793 4.85267 10.1744 4.3762 10.1744 3.78843C10.1744 3.20065 9.69793 2.72418 9.11016 2.72418ZM13.3671 7.77935V6.89248C13.3671 6.82192 13.3391 6.75424 13.2892 6.70435C13.2393 6.65445 13.1716 6.62642 13.1011 6.62642H5.11924C5.04867 6.62642 4.981 6.65445 4.9311 6.70435C4.88121 6.75424 4.85318 6.82192 4.85318 6.89248V7.77935C4.85318 7.84992 4.88121 7.91759 4.9311 7.96749C4.981 8.01738 5.04867 8.04541 5.11924 8.04541H13.1011C13.1716 8.04541 13.2393 8.01738 13.2892 7.96749C13.3391 7.91759 13.3671 7.84992 13.3671 7.77935Z" fill="#183B06"/>
</svg>
