<svg width="18" height="23" viewBox="0 0 18 23" fill="none" xmlns="http://www.w3.org/2000/svg">
<path d="M15.9723 0.211941L14.2695 2.19853L11.8572 0.211941C11.7347 0.119145 11.5852 0.0689235 11.4315 0.0689235C11.2779 0.0689235 11.1284 0.119145 11.0058 0.211941L8.59356 2.19853L6.18127 0.211941C6.05875 0.119145 5.90926 0.0689235 5.75557 0.0689235C5.60187 0.0689235 5.45239 0.119145 5.32987 0.211941L2.91758 2.19853L1.21479 0.211941C0.744744 -0.138373 0.0795898 0.194204 0.0795898 0.779539V22.0645C0.0795898 22.6498 0.744744 22.9824 1.21479 22.6321L2.91758 20.6455L5.32987 22.6321C5.45239 22.7249 5.60187 22.7751 5.75557 22.7751C5.90926 22.7751 6.05875 22.7249 6.18127 22.6321L8.59356 20.6455L11.0058 22.6321C11.1284 22.7249 11.2779 22.7751 11.4315 22.7751C11.5852 22.7751 11.7347 22.7249 11.8572 22.6321L14.2695 20.6455L15.9723 22.6321C16.4379 22.9824 17.1075 22.6498 17.1075 22.0645V0.779539C17.1075 0.194204 16.4424 -0.138373 15.9723 0.211941ZM14.2695 16.0337C14.2695 16.2288 14.1099 16.3885 13.9148 16.3885H3.27233C3.07722 16.3885 2.91758 16.2288 2.91758 16.0337V15.3242C2.91758 15.1291 3.07722 14.9695 3.27233 14.9695H13.9148C14.1099 14.9695 14.2695 15.1291 14.2695 15.3242V16.0337ZM14.2695 11.7767C14.2695 11.9719 14.1099 12.1315 13.9148 12.1315H3.27233C3.07722 12.1315 2.91758 11.9719 2.91758 11.7767V11.0672C2.91758 10.8721 3.07722 10.7125 3.27233 10.7125H13.9148C14.1099 10.7125 14.2695 10.8721 14.2695 11.0672V11.7767ZM14.2695 7.51976C14.2695 7.71488 14.1099 7.87451 13.9148 7.87451H3.27233C3.07722 7.87451 2.91758 7.71488 2.91758 7.51976V6.81027C2.91758 6.61515 3.07722 6.45552 3.27233 6.45552H13.9148C14.1099 6.45552 14.2695 6.61515 14.2695 6.81027V7.51976Z" fill="#183B06"/>
</svg>
