<svg width="21" height="24" viewBox="0 0 21 24" fill="none" xmlns="http://www.w3.org/2000/svg">
<path d="M10.3519 12.1629C13.487 12.1629 16.0279 9.62198 16.0279 6.48689C16.0279 3.3518 13.487 0.810913 10.3519 0.810913C7.21682 0.810913 4.67593 3.3518 4.67593 6.48689C4.67593 9.62198 7.21682 12.1629 10.3519 12.1629ZM14.3251 13.5819H13.5846C12.6001 14.0342 11.5048 14.2914 10.3519 14.2914C9.19897 14.2914 8.10812 14.0342 7.11926 13.5819H6.37872C3.08843 13.5819 0.418945 16.2513 0.418945 19.5416V21.3863C0.418945 22.5614 1.37233 23.5148 2.54744 23.5148H18.1564C19.3315 23.5148 20.2849 22.5614 20.2849 21.3863V19.5416C20.2849 16.2513 17.6154 13.5819 14.3251 13.5819Z" fill="#183B06"/>
</svg>
