<svg width="24" height="19" viewBox="0 0 24 19" fill="none" xmlns="http://www.w3.org/2000/svg">
<path d="M8.56795 9.35513C11.076 9.35513 13.1087 7.32242 13.1087 4.81434C13.1087 2.30627 11.076 0.27356 8.56795 0.27356C6.05988 0.27356 4.02717 2.30627 4.02717 4.81434C4.02717 7.32242 6.05988 9.35513 8.56795 9.35513ZM11.7465 10.4903H11.1541C10.3665 10.8522 9.4903 11.0579 8.56795 11.0579C7.64561 11.0579 6.77292 10.8522 5.98183 10.4903H5.3894C2.75717 10.4903 0.621582 12.6259 0.621582 15.2581V16.7339C0.621582 17.674 1.38429 18.4367 2.32438 18.4367H14.8115C15.7516 18.4367 16.5143 17.674 16.5143 16.7339V15.2581C16.5143 12.6259 14.3787 10.4903 11.7465 10.4903ZM23.2049 5.93535L22.2187 4.9385C22.0555 4.77177 21.7894 4.77177 21.6227 4.93496L17.9049 8.62434L16.2908 6.99959C16.1276 6.83286 15.8616 6.83286 15.6949 6.99605L14.698 7.9858C14.5313 8.14898 14.5313 8.41504 14.6945 8.58177L17.5928 11.5014C17.7559 11.6681 18.022 11.6681 18.1887 11.5049L23.2013 6.53133C23.3645 6.36459 23.3681 6.09853 23.2049 5.93535Z" fill="white"/>
</svg>
